<?xml version="1.0" encoding="UTF-8" standalone="no"?>
<!-- Created with Inkscape (http://www.inkscape.org/) -->

<svg
   version="1.1"
   id="svg2"
   width="380.61826"
   height="360.09772"
   viewBox="0 0 380.61826 360.09772"
   xmlns="http://www.w3.org/2000/svg"
   xmlns:svg="http://www.w3.org/2000/svg">
  <defs
     id="defs6" />
  <g
     id="g8"
     transform="matrix(1.3333333,0,0,-1.3333333,1.3333333,358.7644)">
    <g
       id="g10">
      <path
         d="m 213.3879,232.1391 c -20.7641,-2.5195 -38.9551,-15.3241 -48.403,-30.8518 -3.2896,-5.4062 -4.7778,-8.2836 -7.2587,-14.5122 -1.1316,-2.8412 -4.3707,-9.4057 2.3701,-8.1853 7.9086,1.4312 15.3592,3.7502 21.787,6.9216 4.3541,2.1487 9.5837,5.3901 13.1828,8.3857 9.1531,7.6179 16.8727,17.6947 20.9237,29.7306 1.012,3.0068 3.9078,9.3008 -2.6019,8.5114"
         style="fill:#406997;fill-opacity:1;fill-rule:evenodd;stroke:none"
         id="path12" />
      <path
         d="m 68.3334,232.3301 c -2.0829,-0.8345 -2.0829,-2.5191 -1.4108,-4.8937 1.588,-5.6132 3.6819,-10.2535 6.5543,-15.2042 2.8374,-4.8929 5.6993,-8.3614 9.2432,-12.3392 2.6796,-3.009 8.4234,-7.5807 11.9228,-9.8394 6.2696,-4.045 12.4616,-6.8074 19.8827,-9.0113 1.9168,-0.5686 10.1798,-2.7805 11.8069,-2.2643 2.2541,0.7157 1.8981,2.9551 1.283,4.6669 -3.2896,9.1659 -6.6405,16.0033 -12.532,23.6773 l -2.3621,2.8973 c -0.4343,0.4527 -0.5383,0.5473 -0.8907,0.9816 -4.5938,5.6707 -14.3909,12.566 -20.7516,15.4522 -3.3148,1.5038 -6.6914,2.8775 -10.4862,3.9677 -2.082,0.5975 -10.3339,2.6804 -12.2595,1.9091"
         style="fill:#406997;fill-opacity:1;fill-rule:evenodd;stroke:none"
         id="path14" />
      <path
         d="m 140.3972,267.9752 c -1.7822,-0.4181 -2.3967,-2.0798 -3.2344,-3.4072 -2.5982,-4.1182 -4.8634,-9.161 -6.4219,-13.8362 -2.4193,-7.2564 -3.7199,-15.2751 -3.3913,-23.548 0.4291,-10.8 3.7023,-22.3106 8.7417,-31.5 0.8323,-1.5185 1.5872,-2.9409 2.4194,-4.3367 0.8206,-1.3768 1.5897,-3.3177 3.9294,-2.8347 1.6033,0.3314 2.3051,2.3072 3.039,3.5731 0.7696,1.3258 1.6251,2.969 2.3156,4.4323 10.2912,21.7802 10.6251,43.4211 -0.8472,64.8088 -0.7954,1.483 -1.681,2.859 -2.5784,4.1714 -0.8484,1.2407 -1.6898,3.0118 -3.9719,2.4772"
         style="fill:#406997;fill-opacity:1;fill-rule:evenodd;stroke:none"
         id="path16" />
      <path
         d="m 134.8245,172.2158 c -0.5709,4.3775 2.7372,8.0297 6.5047,8.4818 10.1568,1.2172 11.8429,-13.6874 2.0673,-15.0656 -4.5312,-0.638 -8.0742,2.7706 -8.572,6.5838 z m -124.5982,0 c -1.3258,-4.7024 -8.326,-2.7513 -7.054,1.9822 0.4328,1.611 2.3383,3.0918 4.551,2.4809 1.6211,-0.4476 3.1354,-2.2195 2.503,-4.4631 z m 262.9797,1.5006 c -0.1395,1.7025 2.1073,3.3554 4.1227,3.0527 4.6908,-0.7047 3.602,-8.0799 -1.302,-7.2034 -2.8479,0.5091 -2.7232,2.9661 -2.8207,4.1507 z m -141.3601,1.0557 -118.6645,-0.0718 c -0.8938,1.9358 -0.8396,2.4631 -2.3664,3.7469 -1.1883,0.9983 -2.9143,1.6364 -4.8835,1.4298 -7.7505,-0.8147 -7.9631,-12.2315 -0.2982,-13.383 2.7363,-0.4113 5.0856,0.7903 6.5089,2.8531 0.557,0.8065 0.6256,1.4559 1.0378,2.1671 l 118.6631,0.093 c 2.2274,-11.2204 15.5114,-11.6569 19.7795,-3.6729 0.7742,1.4477 0.8119,2.0577 1.3213,3.6757 l 117.2562,-0.002 c 0.599,-1 0.5636,-2.232 2.4151,-3.7366 1.2651,-1.0281 2.8806,-1.6262 4.879,-1.4083 3.2653,0.3558 5.9596,3.1811 5.9692,6.6907 0.0102,3.5067 -2.6064,6.2572 -5.8184,6.6979 -1.9995,0.2742 -3.6952,-0.3662 -4.9308,-1.3257 -1.9106,-1.4828 -1.8893,-2.734 -2.5141,-3.7931 -4.4328,-0.3259 -10.0644,-0.0326 -14.631,-0.0326 -15.51,0 -101.696,-0.2511 -102.6672,0.1426 -0.7075,2.24 -1.2158,4.4632 -3.3973,6.2949 -1.6214,1.3618 -4.0535,2.6912 -7.0461,2.7133 -5.758,0.0423 -9.6599,-4.022 -10.6126,-9.079"
         style="fill:#b5d6ed;fill-opacity:1;fill-rule:evenodd;stroke:none"
         id="path18" />
      <path
         d="m 12.6677,43.7774 h 42.6836 v 9.6577 H 27.9312 v 35.4118 h 22.0175 v 9.5383 H 27.9312 v 31.9541 h 27.1502 v 10.0153 H 12.6677 Z"
         style="fill:#2d4554;fill-opacity:1;fill-rule:nonzero;stroke:none"
         id="path20" />
      <path
         d="m 67.6434,43.7774 h 15.2635 v 45.1885 h 28.0956 V 43.7774 h 15.2637 v 96.5772 H 111.0025 V 98.6238 H 82.9069 v 41.7308 H 67.6434 Z"
         style="fill:#2d4554;fill-opacity:1;fill-rule:nonzero;stroke:none"
         id="path22" />
      <path
         d="m 170.8407,42.7042 c 21.477,0 27.5553,12.0424 27.5553,29.808 v 7.1538 h -14.453 v -7.1538 c 0,-11.4463 -0.6755,-19.1962 -12.9671,-19.1962 -10.5361,0 -14.1829,4.7693 -14.1829,19.3153 v 38.2734 c 0,11.923 1.2155,19.7923 14.1829,19.7923 12.697,0 12.9671,-7.3925 12.9671,-18.1233 v -6.7961 h 14.453 v 7.6309 c 0,17.4076 -7.1589,27.7807 -27.5553,27.7807 -23.233,0 -29.4463,-12.7576 -29.4463,-32.3116 V 74.7774 c 0,-18.0037 6.2133,-32.0732 29.4463,-32.0732"
         style="fill:#2d4554;fill-opacity:1;fill-rule:nonzero;stroke:none"
         id="path24" />
      <path
         d="m 240.9449,42.7042 c 22.0172,0 29.8516,12.2808 29.8516,31.2387 v 36.7231 c 0,18.9578 -7.8344,30.5232 -29.8516,30.5232 -22.1522,0 -29.9866,-11.4461 -29.9866,-30.5232 V 74.0622 c 0,-19.1962 7.6992,-31.358 29.9866,-31.358 z m 0,10.6118 c -12.2919,0 -14.588,7.0345 -14.588,17.7653 v 42.3272 c 0,10.7308 2.2961,17.2885 14.588,17.2885 12.1569,0 14.453,-6.5577 14.453,-17.2885 V 71.0813 c 0,-10.7308 -2.2961,-17.7653 -14.453,-17.7653"
         style="fill:#2d4554;fill-opacity:1;fill-rule:nonzero;stroke:none"
         id="path26" />
      <path
         d="m 19.8697,0 c 3.7863,0 6.4999,2.446 6.4999,6.4667 0,3.3843 -1.8425,5.7965 -3.8866,7.6059 l -4.5901,4.0209 c -1.2734,1.1056 -1.776,2.0438 -1.776,3.6856 0,1.9769 1.1058,2.9821 2.9821,2.9821 2.8145,0 3.4177,-2.2785 3.6187,-4.9589 l 3.2162,0.8711 c -0.4351,4.7579 -2.5126,7.0029 -6.8349,7.0029 -3.9203,0 -6.3663,-2.2784 -6.3663,-6.2657 0,-2.7141 0.8042,-4.4229 2.6135,-5.9975 l 4.557,-4.0209 c 1.7087,-1.5078 2.9486,-2.7811 2.9486,-5.2268 0,-2.0776 -1.0389,-3.1834 -2.9821,-3.1834 -2.9151,0 -3.6524,2.9152 -3.8534,5.8303 L 12.6658,7.9075 C 12.9339,3.2168 15.1452,0 19.8697,0"
         style="fill:#b5d6ed;fill-opacity:1;fill-rule:nonzero;stroke:none"
         id="path28" />
      <path
         d="m 82.6257,0.3016 h 3.7862 v 12.6989 h 5.1931 v 2.6805 h -5.1931 v 9.0467 h 6.7008 v 2.7139 h -10.487 z"
         style="fill:#b5d6ed;fill-opacity:1;fill-rule:nonzero;stroke:none"
         id="path30" />
      <path
         d="m 95.9272,0.3016 h 3.7194 v 27.14 h -3.7194 z"
         style="fill:#b5d6ed;fill-opacity:1;fill-rule:nonzero;stroke:none"
         id="path32" />
      <path
         d="m 107.0175,0.3016 h 3.7862 v 24.3255 h 4.4564 v 2.8145 h -12.833 v -2.8145 h 4.5904 z"
         style="fill:#b5d6ed;fill-opacity:1;fill-rule:nonzero;stroke:none"
         id="path34" />
      <path
         d="m 117.4042,0.3016 h 3.5853 v 3.9872 h -3.5853 z"
         style="fill:#b5d6ed;fill-opacity:1;fill-rule:nonzero;stroke:none"
         id="path36" />
      <path
         d="m 138.2448,0 c 3.7863,0 6.5001,2.446 6.5001,6.4667 0,3.3843 -1.8428,5.7965 -3.8868,7.6059 l -4.5902,4.0209 c -1.2733,1.1056 -1.7759,2.0438 -1.7759,3.6856 0,1.9769 1.1058,2.9821 2.9821,2.9821 2.8145,0 3.4177,-2.2785 3.6187,-4.9589 l 3.2165,0.8711 c -0.4354,4.7579 -2.513,7.0029 -6.8352,7.0029 -3.9203,0 -6.3661,-2.2784 -6.3661,-6.2657 0,-2.7141 0.8042,-4.4229 2.6133,-5.9975 l 4.557,-4.0209 c 1.7087,-1.5078 2.9486,-2.7811 2.9486,-5.2268 0,-2.0776 -1.0389,-3.1834 -2.9821,-3.1834 -2.9151,0 -3.6524,2.9152 -3.8534,5.8303 L 131.0411,7.9075 C 131.3093,3.2168 133.5203,0 138.2448,0"
         style="fill:#b5d6ed;fill-opacity:1;fill-rule:nonzero;stroke:none"
         id="path38" />
      <path
         d="m 32.3002,0.3016 h 3.7863 v 24.3255 h 4.4563 v 2.8145 h -12.833 v -2.8145 h 4.5904 z"
         style="fill:#b5d6ed;fill-opacity:1;fill-rule:nonzero;stroke:none"
         id="path40" />
      <path
         d="m 41.6146,0.3016 h 3.5515 l 1.3068,6.8352 h 5.5287 l 1.2396,-6.8352 h 3.5849 l -5.7962,27.14 H 47.3777 Z M 46.9755,9.851 49.2205,22.0808 51.499,9.851 Z"
         style="fill:#b5d6ed;fill-opacity:1;fill-rule:nonzero;stroke:none"
         id="path42" />
      <path
         d="m 62.9912,0.3016 h 3.6187 v 9.5828 l 5.8298,17.5572 H 68.8884 L 64.8006,14.3408 60.6458,27.4416 H 57.1275 L 62.9912,9.8844 Z"
         style="fill:#b5d6ed;fill-opacity:1;fill-rule:nonzero;stroke:none"
         id="path44" />
      <path
         d="m 150.6753,0.3016 h 3.7862 v 24.3255 h 4.4564 v 2.8145 h -12.8327 v -2.8145 h 4.5901 z"
         style="fill:#b5d6ed;fill-opacity:1;fill-rule:nonzero;stroke:none"
         id="path46" />
      <path
         d="m 159.99,0.3016 h 3.5512 l 1.3068,6.8352 h 5.5287 l 1.2396,-6.8352 h 3.5852 l -5.7966,27.14 h -3.6521 z m 5.3606,9.5494 2.245,12.2298 2.2785,-12.2298 z"
         style="fill:#b5d6ed;fill-opacity:1;fill-rule:nonzero;stroke:none"
         id="path48" />
      <path
         d="m 181.3663,0.3016 h 3.6187 v 9.5828 l 5.83,17.5572 h -3.5515 l -4.0878,-13.1008 -4.1548,13.1008 h -3.5181 l 5.8635,-17.5572 z"
         style="fill:#b5d6ed;fill-opacity:1;fill-rule:nonzero;stroke:none"
         id="path50" />
      <path
         d="m 207.8025,0 c 5.3271,0 6.8349,3.3843 6.8349,8.3767 v 2.0103 h -3.585 V 8.3767 c 0,-3.2168 -0.1675,-5.3947 -3.2165,-5.3947 -2.6135,0 -3.518,1.3403 -3.518,5.4281 v 10.7555 c 0,3.3508 0.3016,5.5621 3.518,5.5621 3.1493,0 3.2165,-2.0775 3.2165,-5.093 V 17.725 h 3.585 v 2.1444 c 0,4.8918 -1.7756,7.8069 -6.8349,7.8069 -5.7631,0 -7.3043,-3.5852 -7.3043,-9.0802 V 9.0133 C 200.4982,3.9538 202.0394,0 207.8025,0"
         style="fill:#b5d6ed;fill-opacity:1;fill-rule:nonzero;stroke:none"
         id="path52" />
      <path
         d="m 225.1919,0 c 5.4615,0 7.405,3.4512 7.405,8.7786 v 10.3201 c 0,5.3274 -1.9435,8.5776 -7.405,8.5776 -5.4947,0 -7.4381,-3.2167 -7.4381,-8.5776 V 8.8123 C 217.7538,3.4177 219.6635,0 225.1919,0 Z m 0,2.982 c -3.0489,0 -3.6184,1.9769 -3.6184,4.9924 v 11.895 c 0,3.0155 0.5695,4.8583 3.6184,4.8583 3.0155,0 3.5853,-1.8428 3.5853,-4.8583 V 7.9744 c 0,-3.0155 -0.5698,-4.9924 -3.5853,-4.9924"
         style="fill:#b5d6ed;fill-opacity:1;fill-rule:nonzero;stroke:none"
         id="path54" />
      <path
         d="m 243.2514,0 c 5.4615,0 7.405,3.4512 7.405,8.7786 v 10.3201 c 0,5.3274 -1.9435,8.5776 -7.405,8.5776 -5.4946,0 -7.4381,-3.2167 -7.4381,-8.5776 V 8.8123 C 235.8133,3.4177 237.723,0 243.2514,0 Z m 0,2.982 c -3.0492,0 -3.6184,1.9769 -3.6184,4.9924 v 11.895 c 0,3.0155 0.5692,4.8583 3.6184,4.8583 3.0155,0 3.5853,-1.8428 3.5853,-4.8583 V 7.9744 c 0,-3.0155 -0.5698,-4.9924 -3.5853,-4.9924"
         style="fill:#b5d6ed;fill-opacity:1;fill-rule:nonzero;stroke:none"
         id="path56" />
      <path
         d="m 254.3754,0.3016 h 10.7218 v 2.7139 h -6.9358 v 24.4261 h -3.786 z"
         style="fill:#b5d6ed;fill-opacity:1;fill-rule:nonzero;stroke:none"
         id="path58" />
      <path
         d="m 267.2082,0.3016 h 3.5849 v 3.9872 h -3.5849 z"
         style="fill:#b5d6ed;fill-opacity:1;fill-rule:nonzero;stroke:none"
         id="path60" />
    </g>
  </g>
</svg>
